<?xml version="1.0" encoding="UTF-8"?>
<svg width="204px" height="52px" viewBox="0 0 204 52" version="1.1" xmlns="http://www.w3.org/2000/svg" xmlns:xlink="http://www.w3.org/1999/xlink">
    <!-- Generator: Sketch 62 (91390) - https://sketch.com -->
    <title>LOGO</title>
    <desc>Created with Sketch.</desc>
    <g id="Page-1" stroke="none" stroke-width="1" fill="none" fill-rule="evenodd">
        <g id="01_LIVING_TOMORROW_HOME" transform="translate(-94.000000, -58.000000)" fill="#004A7A">
            <g id="LOGO" transform="translate(94.000000, 58.000000)">
                <g id="TOMORROW" transform="translate(33.378800, 25.808000)">
                    <polygon id="Path" fill-rule="nonzero" points="5.4534155e-13 1.43310816 5.4534155e-13 4.66733276 4.4972973 4.66733276 4.4972973 23.0331082 8.3027027 23.0331082 8.3027027 4.66733276 12.8 4.66733276 12.8 1.43310816"></polygon>
                    <g id="Group" transform="translate(11.769200, 0.000000)" fill-rule="nonzero">
                        <path d="M48.2307999,23.1571141 L42.8899417,0.233108159 L36.5092093,13.451138 C36.4309886,13.6320163 36.3424153,13.8244894 36.2492407,14.0308762 C35.9973243,14.578149 35.6959448,15.2425289 35.4106696,16.0031454 C34.9206404,14.7404757 34.5582949,13.8395626 34.3753966,13.4441812 L27.8474254,0.273689829 L22.6307999,23.1965363 L26.1530286,23.1965363 L28.4961965,12.496889 C28.665291,11.7235183 28.7791711,11.0000051 28.8401372,10.3124357 C29.0609954,11.0081214 29.3002585,11.5878596 29.6453495,12.2905022 L35.3991666,24.2331082 L41.1575849,12.5084838 C41.5176298,11.7687379 41.7879511,11.0487031 41.9766009,10.3333062 C42.0088094,10.5652015 42.0916312,10.7970968 42.0916312,11.0487031 C42.1767536,11.7443889 42.2066615,12.2081794 42.3216919,12.4400747 L44.7223748,23.1687089 L48.2307999,23.1687089 L48.2307999,23.1571141 Z" id="Path"></path>
                        <path d="M66.8519995,12.1770618 C66.8519995,14.2304637 66.0969677,16.0873733 64.6672266,17.5777271 C63.2489602,19.0267141 61.4439982,19.7919998 59.4531469,19.7919998 C57.4404938,19.7919998 55.628647,19.0267141 54.2080857,17.5777271 C52.7967041,16.1390818 52.0519995,14.279874 52.0519995,12.2069378 C52.0519995,10.1443433 52.8173584,8.2276817 54.2080857,6.80742165 C55.6091401,5.38026713 57.4691804,4.59199982 59.4531469,4.59199982 C61.4439982,4.59199982 63.354527,5.39635422 64.6167382,6.77524747 C66.0763133,8.21504185 66.8256078,10.168474 66.8256078,12.1219061 M70.8519995,12.1902468 C70.8519995,9.15169095 69.6976874,6.40530393 67.5094015,4.24909795 C65.3211155,2.11743416 62.5334753,0.991999817 59.4525836,0.991999817 C56.3518304,0.991999817 53.5536751,2.11743416 51.3653892,4.24909795 C49.1993015,6.3877738 48.0519995,9.13299215 48.0519995,12.1960902 C48.0519995,15.234646 49.2203315,18.0394668 51.3233292,20.1091908 C53.4707235,22.2128064 56.347157,23.3814817 59.3848204,23.3919998 C62.4026221,23.3919998 65.2638673,22.2279992 67.4416382,20.1103595 C69.6976874,17.977527 70.8157812,15.2895738 70.8157812,12.1341504" id="Shape"></path>
                        <path d="M121.240532,12.1770618 C121.240532,14.2304637 120.485968,16.0873733 119.057113,17.5777271 C117.64202,19.0267141 115.838176,19.7919998 113.845119,19.7919998 C111.833713,19.7919998 110.02299,19.0267141 108.604456,17.5777271 C107.195096,16.1390818 106.451999,14.2821722 106.451999,12.2069378 C106.451999,10.1443433 107.215737,8.2276817 108.604456,6.80742165 C110.003495,5.38026713 111.862382,4.59199982 113.845119,4.59199982 C115.835883,4.59199982 117.744081,5.39635422 119.005509,6.77524747 C120.465327,8.21504185 121.251999,10.168474 121.251999,12.1219061 M125.250831,12.1762424 C125.250831,9.14148656 124.09541,6.39853413 121.908404,4.24502467 C119.719062,2.1160267 116.932733,0.991999817 113.851999,0.991999817 C110.752573,0.991999817 107.953393,2.1160267 105.766388,4.24502467 C103.599243,6.3786915 102.451999,9.12281113 102.451999,12.1762424 C102.451999,15.2109983 103.620272,18.0123114 105.723162,20.1132963 C107.869278,22.2142811 110.746732,23.3814949 113.78424,23.3919998 C116.801887,23.3919998 119.661817,22.2294549 121.840645,20.1144635 C124.094242,17.9562852 125.251999,15.2716934 125.251999,12.1202162" id="Shape"></path>
                        <path d="M18.8519995,12.1770618 C18.8519995,14.2304637 18.0969677,16.0873733 16.6672266,17.5777271 C15.2489602,19.0267141 13.4439982,19.7919998 11.4519995,19.7919998 C9.43934635,19.7919998 7.62864702,19.0267141 6.20923315,17.5777271 C4.79670408,16.1390818 4.05199947,14.279874 4.05199947,12.2069378 C4.05199947,10.1443433 4.81621098,8.2276817 6.20923315,6.80742165 C7.60799265,5.38026713 9.46803297,4.59199982 11.4519995,4.59199982 C13.4439982,4.59199982 15.3533795,5.39635422 16.6155907,6.77524747 C18.0774608,8.21504185 18.8233129,10.168474 18.8233129,12.1219061 M22.8519995,12.1762424 C22.8519995,9.14148656 21.6965783,6.39853413 19.5084045,4.24502467 C17.3202307,2.1160267 14.5339015,0.991999817 11.4519995,0.991999817 C8.35023682,0.991999817 5.55572975,2.1160267 3.3652194,4.24502467 C1.19924276,6.3786915 0.0519994736,9.12281113 0.0519994736,12.1762424 C0.0519994736,15.2109983 1.22027166,18.0123114 3.3231616,20.1132963 C5.47044588,22.2142811 8.346732,23.3814949 11.3842397,23.3919998 C14.403055,23.3919998 17.2641536,22.2294549 19.4406447,20.1144635 C21.69541,17.9562852 22.8122782,15.2716934 22.8122782,12.1202162" id="Shape"></path>
                        <path d="M76.9640435,10.5730724 L76.4519995,10.5730724 L76.4519995,4.59199982 L76.9640435,4.59199982 C80.0867909,4.59199982 81.6517706,5.06518594 81.6517706,7.6677096 C81.6722043,10.1188137 80.3259852,10.5919998 76.9604376,10.5919998 M85.3666484,7.41089947 C85.3666484,5.42260533 84.5687422,3.67796342 83.1770724,2.61370887 C81.8098997,1.59197853 80.0939347,1.39199982 77.598728,1.39199982 L72.4519995,1.39199982 L72.4519995,22.9919998 L76.1137358,22.9919998 L76.1137358,13.4573824 L76.2898818,13.4573824 L83.6308524,22.9919998 L88.0519995,22.9919998 L80.4392275,13.2746432 C83.6635152,12.7976825 85.3386517,10.7289371 85.3386517,7.39595853" id="Shape"></path>
                        <path d="M92.9640443,10.5730724 L92.4519995,10.5730724 L92.4519995,4.59199982 L92.9640443,4.59199982 C96.0879988,4.59199982 97.6517791,5.06518594 97.6517791,7.6677096 C97.6722128,10.1188137 96.2731043,10.5919998 92.9075511,10.5919998 M101.36705,7.41089947 C101.36705,5.42260533 100.570429,3.67566482 99.1801341,2.61370887 C97.8119995,1.59197853 96.0974574,1.39199982 93.6002911,1.39199982 L88.4519995,1.39199982 L88.4519995,22.9919998 L92.1166873,22.9919998 L92.1166873,13.4573824 L92.2916406,13.4573824 L99.6315135,22.9919998 L104.051999,22.9919998 L96.4415322,13.2746432 C99.6641714,12.7976825 101.404373,10.7289371 101.404373,7.39595853" id="Shape"></path>
                        <path d="M152.2308,1.36198759 L148.489214,1.36198759 L144.484719,11.6414036 C144.065671,12.8062494 143.780947,13.686845 143.571997,14.4258956 C143.28383,13.4478428 142.95548,12.4674696 142.592687,11.5010188 L137.984303,0.233108159 L133.583721,11.2991432 L133.497615,11.5555485 C133.334588,12.0381937 133.01083,12.990722 132.56882,14.4560609 C132.253099,13.4083958 131.89375,12.3897358 131.576881,11.5126209 L127.541387,1.32718144 L123.8308,1.32718144 L132.204879,24.2331082 L137.085358,12.0927234 C137.387302,11.309585 137.67547,10.4533537 137.959045,9.486903 C138.200141,10.2990465 138.533084,11.11119 138.877507,12.0347131 L143.84524,24.2296275 L152.2308,1.36198759 Z" id="Path"></path>
                        <path d="M156.051999,5.39199982 C157.615052,5.39199982 158.851999,4.2423914 158.851999,2.79374517 C158.851999,1.34509894 157.615052,0.191999817 156.051999,0.191999817 C154.487698,0.191999817 153.251999,1.34509894 153.251999,2.79374517 C153.251999,4.2423914 154.487698,5.38269125 156.094481,5.38269125 M156.0229,0.596663304 C157.330778,0.596663304 158.451999,1.52936071 158.451999,2.81181964 C158.451999,4.03715085 157.360183,4.99199982 156.052304,4.99199982 C154.743148,4.99199982 153.65261,4.03715085 153.65261,2.81181964 C153.623205,1.52469722 154.660047,0.591999817 156.066368,0.591999817 M156.414122,2.89832188 C156.834934,2.88496204 157.251999,2.68456443 157.251999,2.13347099 C157.251999,1.54341135 156.741281,1.39199982 156.173123,1.39199982 L154.851999,1.39199982 L154.851999,4.19199982 L155.305277,4.19199982 L155.305277,2.89832188 L155.88842,2.89832188 L156.690085,4.19199982 L157.209544,4.19199982 L156.414122,2.88384872 L156.414122,2.89832188 Z M156.851999,2.02465291 C156.851999,2.43385291 156.225913,2.36545291 155.769725,2.36545291 L155.251999,2.36545291 L155.251999,1.61425291 L156.049324,1.61425291 C156.454675,1.61425291 156.851999,1.61425291 156.851999,2.02465291 Z" id="Shape"></path>
                    </g>
                </g>
                <g id="LIVING" transform="translate(33.378800, 0.092000)">
                    <polygon id="Rectangle" fill-rule="nonzero" points="12.4 1.54910833 16 1.54910833 16 23.1491083 12.4 23.1491083"></polygon>
                    <path d="M37.2,1.54910833 L33.1955983,1.54910833 L28.2564114,12.8509265 C27.81624,13.853092 27.4698946,14.786616 27.2081084,15.7109878 C26.982231,14.8483933 26.6509441,13.948046 26.1748639,12.8680869 L21.2345187,1.5662687 L17.2,1.5662687 L27.2011583,23.9491083 L37.1073323,1.77448116 L37.2,1.54910833 Z" id="Path" fill-rule="nonzero"></path>
                    <rect id="Rectangle" fill-rule="nonzero" x="38.8" y="1.54910833" width="3.2" height="21.6"></rect>
                    <g id="Group" transform="translate(45.237200, 0.000000)" fill-rule="nonzero">
                        <path d="M19.5627997,23.9491083 L19.5627997,1.38011465 L15.4448094,1.38011465 L15.4448094,14.9702325 C14.6875971,14.0639168 14.0237397,13.3515642 13.3183913,12.6888569 L9.99103669,9.57736527 L9.97835886,9.58775615 L0.362799702,0.349108334 L0.362799702,22.9077111 L4.48194251,22.9077111 L4.48194251,9.32913867 C5.24491748,10.2527725 5.8649787,10.9454979 6.5564968,11.6105143 L9.8043268,14.6377244 L19.5627997,23.9491083 Z" id="Path"></path>
                        <path d="M44.3627997,12.1222893 C44.3627997,11.8231781 44.3510115,11.5287043 44.327435,11.2214777 L44.3180044,11.0835156 L33.0661362,11.0835156 L33.0661362,14.9951479 L40.0353394,14.9951479 C39.6616525,16.0014599 39.1005326,16.9034308 38.3684833,17.6778737 C36.9491801,19.1734296 35.1444016,19.962944 33.1521903,19.962944 C31.1422966,19.962944 29.3280876,19.1734296 27.9087843,17.6778737 C26.496554,16.1869552 25.7491801,14.2682381 25.7491801,12.1222893 C25.7491801,9.98909328 26.5154152,8.0066122 27.9087843,6.53888059 C29.3080476,5.06535224 31.1694095,4.25265093 33.1521903,4.25265093 C35.1432228,4.25265093 37.0423071,5.0641929 38.3390127,6.53888059 C38.8918809,7.11855342 39.3999537,7.81416082 39.7536007,8.5016528 L39.8467277,8.68830745 L39.9976171,8.54222989 C41.1139627,7.47331319 42.5426966,6.06934559 42.5426966,6.06934559 L42.6311083,5.98471336 L42.5650942,5.88385028 C42.1430755,5.23345737 41.6503273,4.61900416 41.0998169,4.05672152 C38.9461067,1.8957012 36.2077002,0.749108334 33.1734091,0.749108334 C30.1226145,0.749108334 27.3712409,1.8957012 25.2210673,4.05904021 C23.0873971,6.23165398 21.9627997,9.01988031 21.9627997,12.1744599 C21.9627997,15.3046932 23.141623,18.0871228 25.2635049,20.2087253 C27.3735986,22.4114821 30.2145627,23.5708277 33.1616209,23.5488002 C36.1334344,23.5488002 38.9449279,22.3616302 41.0880286,20.2098847 C43.2264141,18.0001718 44.3203621,15.2177422 44.3203621,12.0875089" id="Path"></path>
                    </g>
                    <polygon id="Path" fill-rule="nonzero" points="10.4 23.1491083 10.4 19.7813664 3.77142857 19.7813664 3.77142857 1.54910833 -1.82076576e-13 1.54910833 -1.82076576e-13 23.1491083"></polygon>
                </g>
                <g id="MARK" transform="translate(0.000000, 28.000000)">
                    <polygon id="Path" fill-rule="nonzero" points="21.6480003 11.9064002 22.7304004 15.9900002 23.7636004 12.1032002"></polygon>
                    <g id="Group" transform="translate(17.128000, 18.696000)" fill-rule="nonzero">
                        <path d="M1.13159602,3.04203605 L1.13159602,3.04203605 C1.15275202,3.02924405 1.17440002,3.01546805 1.19506402,3.00120005 C1.17489202,3.00120005 1.17440002,3.05040005 1.12520002,3.05040005" id="Path"></path>
                        <path d="M3.78692006,0.373428006 L0.00934400635,1.29150002 L1.13258002,3.04252805 C1.15324402,3.02826005 1.17440002,3.01448405 1.19604802,3.00169205 L3.78692006,0.373428006 Z" id="Path"></path>
                    </g>
                    <polygon id="Path" fill-rule="nonzero" points="17.1708003 3.34560005 20.9592003 4.42800007 18.0564003 1.57440002"></polygon>
                    <polygon id="Path" fill-rule="nonzero" points="20.6640003 12.8904002 17.2692003 18.7452003 21.8940003 17.6136003"></polygon>
                    <polygon id="Path" fill-rule="nonzero" points="13.5300002 23.2716004 17.2200003 22.2876003 16.0884002 20.4672003"></polygon>
                    <path d="M10.0495922,23.2174804 L7.22403611,20.4312843 L6.3345001,22.2103563 C6.3886201,22.2595563 6.4329001,22.2595563 6.4821001,22.3087563 L10.0495922,23.2174804 Z" id="Path" fill-rule="nonzero"></path>
                    <polygon id="Path" fill-rule="nonzero" points="7.23865412e-14 12.3492002 0.541200008 14.9076002 0.885600014 15.8424002 1.77120003 12.0048002"></polygon>
                    <path d="M1.79235603,10.8431882 L0.917580014,7.63830012 L0.528408008,8.78318414 L0.0196800003,10.7511842 C0.0118080002,10.8643442 0.00442800007,10.9779962 1.00586206e-13,11.0916482 L1.79235603,10.8431882 Z" id="Path" fill-rule="nonzero"></path>
                    <polygon id="Path" fill-rule="nonzero" points="8.61000013 0.442800007 6.3468001 1.23000002 7.08480011 2.75520004 9.79080015 0.196800003"></polygon>
                    <polygon id="Path" fill-rule="nonzero" points="16.1868003 2.70600004 16.9740003 1.08240002 13.7268002 0.246000004"></polygon>
                    <polygon id="Path" fill-rule="nonzero" points="17.6136003 4.67400007 20.6640003 9.88920015 21.7956003 5.90400009"></polygon>
                    <polygon id="Path" fill-rule="nonzero" points="12.4476002 12.0048002 16.1376003 18.3516003 19.9260003 11.8572002"></polygon>
                    <polygon id="Path" fill-rule="nonzero" points="8.65920013 20.2212003 11.8572002 23.3700004 14.7108002 20.2212003"></polygon>
                    <polygon id="Path" fill-rule="nonzero" points="2.75520004 12.9888002 1.67280003 17.5644003 5.95320009 18.7452003"></polygon>
                    <polygon id="Path" fill-rule="nonzero" points="2.70600004 9.88920015 5.65800009 4.72320007 1.67280003 6.05160009"></polygon>
                    <polygon id="Path" fill-rule="nonzero" points="11.7096002 -1.77635684e-15 8.36400013 3.14880005 14.9076002 3.14880005"></polygon>
                    <polygon id="Path" fill-rule="nonzero" points="16.2852003 4.82160007 12.6444002 10.8240002 19.7784003 10.7256002"></polygon>
                    <polygon id="Path" fill-rule="nonzero" points="11.5128002 12.6936002 7.97040012 19.0404003 15.2028002 19.0404003"></polygon>
                    <polygon id="Path" fill-rule="nonzero" points="7.03560011 18.3024003 10.5780002 12.0048002 3.49320005 11.9064002"></polygon>
                    <polygon id="Path" fill-rule="nonzero" points="10.3812002 10.8240002 6.88800011 4.87080008 3.54240005 10.7748002"></polygon>
                    <polygon id="Path" fill-rule="nonzero" points="11.5128002 10.4796002 15.3012002 4.28040007 7.87200012 4.28040007"></polygon>
                    <polygon id="Path" fill-rule="nonzero" points="6.05160009 3.34560005 5.36280008 1.86960003 3.69000006 3.24720005 2.65680004 4.47720007"></polygon>
                    <polygon id="Path" fill-rule="nonzero" points="2.90280005 19.1388003 5.36280008 21.5496003 6.1500001 20.0244003"></polygon>
                    <polygon id="Path" fill-rule="nonzero" points="23.6652004 10.9716002 22.6812004 7.28160011 21.6972003 10.7256002"></polygon>
                </g>
            </g>
        </g>
    </g>
</svg>