<?xml version="1.0" standalone="no"?>
<!DOCTYPE svg PUBLIC "-//W3C//DTD SVG 1.1//EN" "http://www.w3.org/Graphics/SVG/1.1/DTD/svg11.dtd">
<svg xmlns="http://www.w3.org/2000/svg" id="Layer_1" viewBox="0 0 1336 531.64" width="1336" height="531.6400146484375"><defs><style>.cls-1{fill:none;}.cls-2{fill:#00a600;}</style></defs><g><polygon class="cls-2" points="301.46 147.49 301.46 165.45 326.61 165.45 326.61 267.37 348.16 267.37 348.16 165.45 372.85 165.45 372.85 147.49 301.46 147.49"/><g><path class="cls-2" d="M635.51,266.92l-29.64-126.61-35.47,72.73c-.45,.9-.9,2.25-1.35,3.14-1.35,3.14-3.14,6.74-4.49,10.78-2.7-7.18-4.94-12.13-5.84-13.92l-36.37-72.73-29.18,126.61h19.76l13.02-58.82c.9-4.49,1.79-8.08,1.79-12.12,1.35,3.59,2.7,7.18,4.49,10.77l31.88,66,31.88-64.65c1.79-4.04,3.59-8.08,4.49-12.12,0,1.34,.45,2.69,.45,4.04,.45,4.04,.9,6.29,.9,7.63l13.47,59.27h20.2Z"/><path class="cls-2" d="M738.77,207.2c0,11.22-4.04,22-12.12,30.08-8.08,8.08-17.96,12.12-29.19,12.12s-21.55-4.04-29.18-12.12c-8.09-8.08-12.13-18.41-12.13-30.08s4.49-22,12.13-30.08c7.63-8.08,17.96-12.12,29.18-12.12s21.55,4.49,29.19,12.12c8.08,8.08,12.12,18.86,12.12,30.08m21.1,0c0-16.61-6.29-31.88-18.41-43.55-12.12-11.68-27.38-17.96-44-17.96s-32.33,6.28-44.45,17.96c-11.67,11.68-17.96,26.94-17.96,43.55s6.29,31.88,17.96,43.1c11.68,11.68,27.39,17.96,44.45,17.96s32.33-6.29,44-17.96c12.13-11.22,18.41-26.49,18.41-43.1"/><path class="cls-2" d="M1040.03,207.2c0,11.22-4.04,22-12.12,30.08-8.08,8.08-17.96,12.12-29.19,12.12s-21.55-4.04-29.18-12.12c-8.09-8.08-12.13-18.41-12.13-30.08s4.49-22,12.13-30.08c7.63-8.08,18.41-12.12,29.18-12.12s21.56,4.49,29.19,12.12c7.64,8.08,12.12,18.86,12.12,30.08m21.1,0c0-16.61-6.29-31.88-18.41-43.55-12.12-11.68-27.39-17.96-44-17.96s-32.32,6.28-44.45,17.96c-11.67,11.68-17.96,26.94-17.96,43.55s6.29,31.88,17.96,43.1c11.68,11.68,27.39,17.96,44.45,17.96s32.33-6.29,44-17.96c12.12-11.22,18.41-26.49,18.41-43.1"/><path class="cls-2" d="M472.97,207.2c0,11.22-4.04,22-12.12,30.08-8.08,8.08-17.96,12.12-29.19,12.12s-21.55-4.04-29.18-12.12c-8.09-8.08-12.13-18.41-12.13-30.08s4.04-22,12.13-30.08c7.63-8.08,18.41-12.12,29.18-12.12s21.55,4.49,29.19,12.12c7.64,8.08,12.12,18.86,12.12,30.08m21.1,0c0-16.61-6.29-31.88-18.41-43.55-12.11-11.68-27.38-17.96-44-17.96s-32.33,6.28-44.45,17.96c-11.67,11.68-17.96,26.94-17.96,43.55s6.29,31.88,17.96,43.1c11.68,11.68,27.39,17.96,44.45,17.96s32.33-6.29,44-17.96c12.13-11.22,18.41-26.49,18.41-43.1"/><path class="cls-2" d="M794,197.32h-2.69v-32.32h2.69c16.61,0,25.14,2.69,25.14,17.06-.45,13.02-7.63,15.26-25.14,15.26m46.7-17.06c0-11.22-4.49-20.65-12.12-26.49-7.64-5.84-17.06-6.74-30.53-6.74h-28.29v120.33h20.2v-53.43h.9l40.41,52.98h24.25l-41.76-54.32c17.5-2.25,26.94-13.47,26.94-32.33"/><path class="cls-2" d="M882.89,197.32h-2.7v-32.32h2.7c16.61,0,25.14,2.69,25.14,17.06,0,13.02-7.19,15.26-25.14,15.26m47.14-17.06c0-11.22-4.49-20.65-12.12-26.49-7.63-5.84-17.06-6.74-30.53-6.74h-28.28v120.33h20.2v-53.43h.9l40.41,52.98h24.25l-41.76-54.32c17.51-2.25,26.94-13.47,26.94-32.33"/><path class="cls-2" d="M1211.99,146.59h-20.65l-22.45,56.57c-2.25,6.29-4.04,11.22-4.94,15.72-1.8-5.39-3.59-10.78-5.39-16.16l-25.6-61.96-24.69,61.06-.44,1.34c-.9,2.7-2.7,8.08-5.39,15.72-1.8-5.83-3.59-11.22-5.4-16.16l-22.45-56.12h-20.65l46.69,126.61,27.39-66.9c1.79-4.49,3.14-8.98,4.93-14.37,1.35,4.49,3.15,8.98,4.94,13.92l27.84,67.34,46.24-126.61Z"/><path class="cls-2" d="M591.5,295.15c2.25,0,4.04,0,4.04,2.25s-3.14,1.79-5.39,1.79h-2.69v-4.04h4.04Zm1.79,6.29c2.25,0,4.49-1.35,4.49-4.49s-2.69-4.04-5.83-4.04h-7.18v15.72h2.69v-7.18h3.14l4.49,7.18h2.69l-4.49-7.18Zm-2.69-12.57c7.18,0,12.57,4.94,12.57,11.68s-5.84,11.68-12.57,11.68c-7.19,0-12.57-5.39-12.57-11.68-.45-6.74,5.38-11.68,12.57-11.68m0,26.04c8.53,0,15.26-6.29,15.26-13.92,0-8.08-6.74-13.92-15.26-13.92s-15.26,6.29-15.26,13.92,6.73,13.92,15.26,13.92"/><path class="cls-2" d="M575.34,377.31c0-7.18-2.25-13.47-6.28-19.3-3.6-5.39-8.98-8.98-15.27-11.22,6.29-5.84,9.87-13.02,9.87-21.55,0-4.94-.9-9.43-3.14-14.37-2.25-4.49-4.93-8.53-8.98-11.68-3.59-3.14-8.08-5.39-13.47-6.29-4.94-1.35-12.12-1.79-20.65-1.79h-20.21v120.78h30.08c8.98,0,16.17-.9,22-2.25,5.39-1.35,10.33-4.49,14.82-8.53,7.63-6.29,11.22-14.37,11.22-23.8m-56.57-67.79h5.83c6.29,0,11.22,1.35,14.37,4.04,3.15,2.69,4.94,6.73,4.94,12.12s-1.79,9.88-4.94,12.57c-3.14,2.69-8.07,4.04-15.26,4.04h-5.39v-32.77h.45Zm29.63,79.47c-4.03,3.14-10.33,4.49-18.86,4.49h-11.22v-34.57h8.98c10.33,0,17.07,1.79,21.1,4.94,4.04,3.14,5.83,7.64,5.83,12.57,.45,5.39-1.79,9.43-5.83,12.57"/><path class="cls-2" d="M575.34,377.31c0-7.18-2.25-13.47-6.28-19.3-3.6-5.39-8.98-8.98-15.27-11.22,6.29-5.84,9.87-13.02,9.87-21.55,0-4.94-.9-9.43-3.14-14.37-2.25-4.49-4.93-8.53-8.98-11.68-3.59-3.14-8.08-5.39-13.47-6.29-4.94-1.35-12.12-1.79-20.65-1.79h-20.21v120.78h30.08c8.98,0,16.17-.9,22-2.25,5.39-1.35,10.33-4.49,14.82-8.53,7.63-6.29,11.22-14.37,11.22-23.8m-56.57-67.79h5.83c6.29,0,11.22,1.35,14.37,4.04,3.15,2.69,4.94,6.73,4.94,12.12s-1.79,9.88-4.94,12.57c-3.14,2.69-8.07,4.04-15.26,4.04h-5.39v-32.77h.45Zm29.63,79.47c-4.03,3.14-10.33,4.49-18.86,4.49h-11.22v-34.57h8.98c10.33,0,17.07,1.79,21.1,4.94,4.04,3.14,5.83,7.64,5.83,12.57,.45,5.39-1.79,9.43-5.83,12.57"/><path class="cls-2" d="M469.83,412.33h22.91l-61.97-128.41-64.21,128.41h22.45l14.37-28.73h53.43l13.02,28.73Zm-39.51-84.86l17.52,37.72h-35.92l18.4-37.72Zm-128.86,84.86h58.37v-18.41h-37.27v-102.37h-21.1v120.78Z"/><path class="cls-2" d="M469.83,412.33h22.91l-61.97-128.41-64.21,128.41h22.45l14.37-28.73h53.43l13.02,28.73Zm-39.51-84.86l17.52,37.72h-35.92l18.4-37.72Zm-128.86,84.86h58.37v-18.41h-37.27v-102.37h-21.1v120.78Z"/></g><polygon class="cls-2" points="245.29 229.01 250.5 209.08 239.73 207.83 245.29 229.01"/><g><path class="cls-2" d="M221.96,258.98h0c.18,0,.18-.18,.36-.18-.18,0-.18,.18-.36,.18"/><path class="cls-2" d="M235.78,245.16l-19.57,4.67,5.92,9.15c.18,0,.18-.18,.36-.18l13.28-13.64Z"/><polygon class="cls-2" points="216.22 163.31 236.14 169.06 220.88 153.98 216.22 163.31"/><polygon class="cls-2" points="234.53 213.03 216.93 243.55 240.99 237.62 234.53 213.03"/><polygon class="cls-2" points="197.55 267.06 216.58 261.68 210.65 252.34 197.55 267.06"/><path class="cls-2" d="M160.03,261.5h0c.36,.18,.54,.36,.9,.36-.36-.18-.72-.36-.9-.36"/><path class="cls-2" d="M179.24,266.7l-14.72-14.54-4.67,9.33c.36,.18,.54,.36,.9,.36l18.49,4.84Z"/><polygon class="cls-2" points="127.19 209.98 129.88 223.44 131.67 228.29 136.34 208.54 127.19 209.98"/><path class="cls-2" d="M136.34,202.26l-4.49-16.69-1.98,5.92-2.69,10.23c0,.54,0,1.25-.18,1.79l9.34-1.25Z"/><polygon class="cls-2" points="171.7 148.23 160.03 152.36 163.8 160.26 177.98 146.98 171.7 148.23"/><polygon class="cls-2" points="211.19 159.9 215.32 151.65 198.27 147.34 211.19 159.9"/><polygon class="cls-2" points="218.55 170.31 234.52 197.24 240.45 176.59 218.55 170.31"/><polygon class="cls-2" points="191.81 208.36 211.01 241.39 230.58 207.65 191.81 208.36"/><polygon class="cls-2" points="172.06 251.09 188.76 267.6 203.47 251.09 172.06 251.09"/><polygon class="cls-2" points="141.37 213.39 135.8 237.44 158.06 243.55 141.37 213.39"/><polygon class="cls-2" points="141.19 197.24 156.45 170.49 135.8 177.31 141.19 197.24"/><polygon class="cls-2" points="188.04 145.9 170.44 162.24 204.55 162.24 188.04 145.9"/><polygon class="cls-2" points="211.91 171.03 192.88 202.26 229.86 201.55 211.91 171.03"/><polygon class="cls-2" points="186.96 211.78 168.47 244.98 206.16 244.98 186.96 211.78"/><polygon class="cls-2" points="163.62 241.21 181.93 208.36 145.14 207.82 163.62 241.21"/><polygon class="cls-2" points="181.04 202.26 162.91 171.21 145.5 201.9 181.04 202.26"/><polygon class="cls-2" points="186.96 200.47 206.52 168.34 168.11 168.34 186.96 200.47"/><polygon class="cls-2" points="158.6 163.31 154.83 155.59 146.21 162.77 140.83 169.23 158.6 163.31"/><polygon class="cls-2" points="142.09 245.34 155.01 258.08 158.96 250.01 142.09 245.34"/><polygon class="cls-2" points="250.14 202.98 244.94 183.95 239.91 201.73 250.14 202.98"/></g></g><rect class="cls-1" width="1336" height="531.64"/></svg>